<svg width="75" height="40" viewBox="0 0 75 40" fill="none" xmlns="http://www.w3.org/2000/svg">
<path fill-rule="evenodd" clip-rule="evenodd" d="M20.8987 11.1378L37.3334 0L53.767 11.1378H20.8987ZM0.455811 19.972L8.84114 14.2894L17.2259 19.972H0.455811ZM17.2268 39.9999L0.510957 39.9999L0.510957 36.3429H17.2268V39.9999ZM74.2645 39.9999L57.5149 39.9999V36.3429H74.2645V39.9999ZM20.9544 39.9999L30.0243 39.9999L30.0243 36.3429H20.9544V39.9999ZM53.8212 39.9999L44.7513 39.9999V36.3429H53.8212V39.9999ZM65.8625 14.2894L57.4771 19.9721H74.2473L65.8625 14.2894ZM63.7728 23.3204H67.9521V32.9948H63.7728V23.3204ZM10.9676 23.3204H6.7882V32.9948H10.9676V23.3204ZM27.8844 14.2894H32.8103V19.9722H27.8844V14.2894ZM53.7664 14.2894H48.8405V19.9722H53.7664V14.2894ZM70.0311 23.3204H74.2105V32.9948H70.0311V23.3204ZM17.2259 23.3204H13.0466V32.9948H17.2259V23.3204ZM34.8706 14.2894H39.7965V19.9722H34.8706V14.2894ZM41.5246 23.3195H33.2152V39.9995H41.5246V23.3195ZM20.9732 23.3204H30.0434V32.9952H20.9732V23.3204ZM53.7673 23.3195H44.6971V32.9942H53.7673V23.3195ZM57.5149 23.3204H61.6943V32.9948H57.5149V23.3204ZM4.71018 23.3204H0.530829V32.9948H4.71018V23.3204ZM20.8987 14.2894H25.8246V19.9722H20.8987V14.2894ZM46.7812 14.2894H41.8553V19.9722H46.7812V14.2894Z" fill="#544C43"/>
</svg>
